<svg width="104" height="16" viewBox="0 0 104 16" fill="none" xmlns="http://www.w3.org/2000/svg">
<path d="M103.457 5.1005C103.267 3.9505 102.627 2.9205 101.838 2.1405C101.038 1.3505 100.058 0.760498 99.0089 0.390498C97.9694 0.0204975 96.8099 -0.129497 95.6904 0.130503C94.5709 0.390503 93.5714 1.12051 93.0216 2.12051C92.0621 3.84051 93.0416 6.03051 94.6409 6.76051C94.9507 7.04051 95.3605 7.21051 95.8103 7.21051C96.7899 7.21051 97.5796 6.4205 97.5796 5.4405C97.5796 4.4605 96.7899 3.67051 95.8103 3.67051C94.8308 3.67051 94.0411 4.4705 94.0411 5.4405C94.0411 5.7105 94.1011 5.9605 94.2111 6.1905C93.1615 5.2405 92.7617 3.5605 93.5114 2.3905C94.0112 1.5605 94.8908 0.970501 95.8303 0.800501C96.7899 0.620501 97.7895 0.790503 98.729 1.1305C100.578 1.8105 102.247 3.3405 102.547 5.2405C102.847 7.1405 101.838 9.12051 100.248 10.3105C98.669 11.5605 96.64 12.2505 94.6209 12.6005C92.5718 12.9705 90.4628 12.9405 88.3937 12.6205C84.2256 12.0305 80.3074 10.3505 76.5191 8.5505C75.2896 7.9605 74.0602 7.3805 72.8107 6.8005H72.9007C73.0606 6.8105 73.2306 6.82051 73.4005 6.82051C75.3796 6.82051 78.0284 6.0305 80.2774 2.6605L80.4273 2.42051L80.1874 2.28051C80.1274 2.25051 73.6804 -1.3095 69.2224 5.2505C67.763 4.6705 66.2637 4.17051 64.7244 3.79051C62.6553 3.27051 60.4763 2.9605 58.2973 3.1305C56.1183 3.3005 53.9393 4.0105 52.1501 5.3505C52.0202 5.4505 51.9102 5.5505 51.7803 5.6605C51.6703 5.5705 51.5704 5.4805 51.4504 5.3905C49.6712 4.0505 47.5022 3.3205 45.3332 3.1405C43.1442 2.9605 40.9851 3.27051 38.9161 3.78051C37.2868 4.18051 35.7175 4.72051 34.1682 5.34051C29.6903 -1.30949 23.2332 2.2705 23.1632 2.3005L22.9133 2.4405L23.0633 2.67051C25.3122 6.05051 27.971 6.8305 29.9401 6.8305C30.1101 6.8305 30.27 6.83051 30.4299 6.81051C30.5599 6.81051 30.6898 6.7805 30.8097 6.7705C29.5703 7.3405 28.3409 7.92051 27.1214 8.51051C23.3331 10.3005 19.4349 12.0005 15.2768 12.6105C13.2177 12.9305 11.0987 12.9705 9.0596 12.6205C7.03051 12.2805 5.01143 11.6105 3.41216 10.4005C1.80289 9.25051 0.743358 7.31051 0.953263 5.40051C1.17316 3.49051 2.80243 1.9205 4.63161 1.1905C5.56119 0.830501 6.55074 0.610498 7.5203 0.750498C8.49986 0.860498 9.31948 1.4405 9.76928 2.3305C10.2191 3.2105 10.369 4.26051 10.0092 5.20051C9.81925 5.78051 9.40944 6.3105 8.88967 6.6105C9.15955 6.3005 9.32948 5.90051 9.32948 5.46051C9.32948 4.4805 8.53983 3.6905 7.56027 3.6905C6.58072 3.6905 5.79107 4.4905 5.79107 5.46051C5.79107 6.43051 6.58072 7.23051 7.56027 7.23051C7.91012 7.23051 8.22997 7.12051 8.49985 6.95051C8.78972 6.90051 9.07959 6.79051 9.30948 6.62051C9.76927 6.30051 10.0991 5.84051 10.319 5.34051C10.7888 4.33051 10.7188 3.1005 10.2491 2.1005C10.0092 1.5905 9.65932 1.1205 9.19953 0.770502C8.73974 0.410502 8.17 0.190504 7.62024 0.100504C6.50075 -0.109496 5.36126 0.0704994 4.32173 0.470499C3.2922 0.860499 2.33264 1.47051 1.553 2.28051C0.773351 3.08051 0.203599 4.1405 0.043671 5.3005C-0.266189 7.6505 1.11319 9.8505 2.90238 11.1005C4.72155 12.3705 6.87058 12.9305 8.97963 13.1905C10.0491 13.3205 11.1087 13.3505 12.1682 13.2905C13.2277 13.2505 14.2872 13.1405 15.3368 12.9605C19.5149 12.2505 23.4831 10.6805 27.3513 9.04051C29.8102 8.00051 32.2591 6.9405 34.748 6.0505C31.8993 8.7505 32.2991 12.6805 32.2991 12.7505L32.3291 13.0305L32.6089 12.9805C36.937 12.1705 38.6462 9.73051 39.3159 7.82051C39.7557 6.57051 39.8157 5.37051 39.7557 4.62051C41.5649 4.25051 43.414 4.0505 45.2132 4.2405C47.2123 4.4405 49.2014 5.0705 50.7907 6.2705C50.8507 6.3105 50.9107 6.37051 50.9706 6.42051C50.5508 6.86051 50.181 7.3505 49.8911 7.9105C49.3214 8.9405 49.2414 10.2905 49.6812 11.3805C49.9711 12.1705 50.4609 12.8605 51.0506 13.4305C50.2909 13.9705 49.4013 14.4005 48.4917 14.7005C47.5322 15.0305 46.5426 15.2805 45.5731 15.1405C44.6335 15.0105 43.7039 14.4505 43.3441 13.5705C42.9842 12.7105 43.3141 11.6205 43.9938 10.9005C44.6935 10.1605 45.713 9.7705 46.7226 9.5805V9.4705C45.663 9.6005 44.5935 9.9205 43.7539 10.6605C42.9543 11.3905 42.4345 12.6005 42.8343 13.7505C43.2541 14.8705 44.3236 15.5805 45.4431 15.8005C46.5726 16.0105 47.7021 15.7905 48.7316 15.4605C49.7512 15.1305 50.7807 14.7105 51.7003 14.0605C51.7203 14.0505 51.7303 14.0305 51.7503 14.0205C52.6899 14.6905 53.7094 15.1205 54.7389 15.4505C55.7685 15.7805 56.888 16.0005 58.0274 15.8005C59.1469 15.6005 60.2364 14.8805 60.6462 13.7605C61.0661 12.6205 60.5463 11.3905 59.7367 10.6705C58.907 9.92051 57.8275 9.60051 56.778 9.48051V9.59051C57.7776 9.78051 58.8071 10.1805 59.4968 10.9105C60.1865 11.6305 60.5063 12.7205 60.1365 13.5905C59.7766 14.4705 58.8271 15.0305 57.8875 15.1505C56.9179 15.2805 55.9284 15.0305 54.9688 14.7005C54.0692 14.4005 53.1896 13.9705 52.44 13.4305C53.0197 12.8805 53.4995 12.1905 53.7894 11.4305C54.2391 10.3505 54.1592 9.0105 53.6194 7.96051C53.3296 7.37051 52.9497 6.87051 52.5099 6.42051C52.5799 6.36051 52.6599 6.2905 52.7298 6.2405C54.3291 5.0505 56.3282 4.43051 58.3373 4.23051C60.0665 4.07051 61.8157 4.2305 63.5449 4.5805C63.485 5.3205 63.5449 6.54051 63.9847 7.81051C64.6544 9.72051 66.3637 12.1605 70.6917 12.9605L70.9716 13.0105L71.0016 12.7305C71.0016 12.6805 71.4114 8.6405 68.4527 5.9405C71.0715 6.8605 73.6604 7.99051 76.2492 9.06051C80.1274 10.7005 84.1056 12.2705 88.2937 12.9505C89.3433 13.1205 90.4028 13.2405 91.4623 13.2605C92.5318 13.3005 93.5913 13.2705 94.6609 13.1305C96.7699 12.8505 98.9189 12.2505 100.728 10.9505C102.497 9.65051 103.807 7.4005 103.417 5.0505L103.477 5.1105L103.457 5.1005ZM95.8203 4.1905C96.51 4.1905 97.0798 4.76051 97.0798 5.45051C97.0798 6.14051 96.51 6.71051 95.8203 6.71051C95.1307 6.71051 94.5609 6.14051 94.5609 5.45051C94.5609 4.76051 95.1307 4.1905 95.8203 4.1905ZM6.30085 5.4705C6.30085 4.7805 6.87059 4.21051 7.56027 4.21051C8.24996 4.21051 8.8197 4.7805 8.8197 5.4705C8.8197 6.1605 8.24996 6.73051 7.56027 6.73051C6.87059 6.73051 6.30085 6.1605 6.30085 5.4705ZM29.0406 6.2705C26.9515 5.9905 25.1423 4.7805 23.643 2.6305C24.8225 2.0505 29.8002 0.0804977 33.5485 5.3905C33.4985 5.4205 33.4286 5.4505 33.3586 5.4905C32.489 5.1505 31.5794 4.9005 30.6698 4.6605C29.6403 4.4205 28.5908 4.18051 27.5212 4.04051C29.4204 4.65051 31.3395 5.1005 33.2786 5.5205C32.529 5.8905 30.8897 6.50051 29.0106 6.26051H29.0306L29.0406 6.2705ZM38.2564 8.8805C37.1869 10.6905 35.3477 11.8805 32.7989 12.4105C32.7489 11.3505 32.8288 7.67051 36.1873 5.57051C37.1469 5.26051 38.1164 4.9805 39.106 4.7505C38.5063 5.3805 37.9665 6.05051 37.4268 6.73051C36.797 7.59051 36.1673 8.4605 35.6276 9.3805C36.907 7.9005 38.0565 6.32051 39.196 4.73051C39.2959 5.57051 39.196 7.2805 38.2464 8.8805H38.2564ZM52.7298 8.42051C53.1696 9.25051 53.2196 10.1905 52.8998 11.0805C52.6799 11.7505 52.27 12.3405 51.7703 12.8305C51.2605 12.3305 50.8507 11.7305 50.6308 11.0405C50.3209 10.1405 50.3909 9.21051 50.8307 8.37051C51.0706 7.91051 51.4004 7.5005 51.7703 7.1105C52.1501 7.5005 52.4999 7.9305 52.7298 8.4105V8.42051ZM79.6776 2.65051C78.1883 4.79051 76.3691 6.01051 74.2801 6.29051C72.4009 6.54051 70.7717 5.9305 70.012 5.5505C71.9511 5.1205 73.8703 4.67051 75.7694 4.07051C74.6999 4.21051 73.6704 4.4405 72.6208 4.6905C71.7112 4.9205 70.8217 5.1805 69.9321 5.5205C69.8721 5.4905 69.7921 5.45051 69.7421 5.42051C73.4805 0.120512 78.4782 2.0905 79.6476 2.6605H79.6676L79.6776 2.65051ZM70.5418 12.4105C67.9829 11.8805 66.1538 10.6905 65.0842 8.8805C64.1247 7.2605 64.0347 5.5305 64.0947 4.6905C65.2542 6.3005 66.4136 7.8905 67.7231 9.3905C67.1833 8.4605 66.5636 7.6005 65.9239 6.7505C65.3841 6.0605 64.8244 5.3605 64.2046 4.7205C64.3046 4.7405 64.3946 4.75051 64.5045 4.78051C65.3341 4.97051 66.1538 5.22051 66.9634 5.46051C70.5018 7.5405 70.6017 11.3405 70.5418 12.4205V12.4105Z" fill="#2C2920"/>
</svg>
