<svg width="42" height="40" viewBox="0 0 42 40" fill="none" xmlns="http://www.w3.org/2000/svg">
<path d="M39.4652 0.364634C38.8696 0.121547 38.189 0 37.4475 0C35.4785 0 33.1692 0.935878 31.4433 3.0872C30.2279 4.60649 29.0124 6.50259 28.2224 9.78426H4.04736C4.04736 9.78426 4.01091 9.78426 3.9866 9.78426C3.69489 9.78426 3.46396 10.0152 3.46396 10.3069C3.46396 10.5986 3.69489 10.8295 3.9866 10.8295C4.01091 10.8295 27.9915 10.8295 27.9915 10.8295C27.0191 15.7277 27.0556 20.3464 27.2987 36.5481C27.2987 36.8399 28.5506 36.7183 28.5506 36.4266C28.2589 22.1088 28.0765 15.5697 29.061 10.8295H32.8167C34.7128 10.8295 36.4387 10.4406 37.9702 9.68703C40.3524 8.50805 41.7137 6.75781 41.9325 4.64296C42.127 2.67395 41.2154 1.06959 39.4773 0.364634H39.4652ZM40.8751 4.54572C40.6928 6.3081 39.5624 7.73017 37.4962 8.75113C36.1106 9.44393 34.5427 9.78426 32.8046 9.78426H29.292C30.0455 6.84291 31.1516 5.12914 32.2576 3.74354C34.3117 1.17898 37.2409 0.595552 39.0641 1.33697C40.3889 1.87176 41.0209 3.01427 40.8751 4.54572Z" fill="#292929"/>
<path d="M25.5242 6.10153C25.5242 5.93137 25.3905 5.79767 25.2203 5.79767H0.303859C0.133698 5.79767 0 5.93137 0 6.10153C0 6.27169 0.133698 6.40539 0.303859 6.40539H25.2203C25.3905 6.40539 25.5242 6.27169 25.5242 6.10153Z" fill="#292929"/>
<path d="M31.9174 13.7101C31.7472 13.7101 31.6135 13.8438 31.6135 14.014V39.6962C31.6135 39.8663 31.7472 40 31.9174 40C32.0875 40 32.2212 39.8663 32.2212 39.6962V14.014C32.2212 13.8438 32.0875 13.7101 31.9174 13.7101Z" fill="#292929"/>
</svg>
