<svg width="191" height="14" viewBox="0 0 191 14" fill="none" xmlns="http://www.w3.org/2000/svg">
    <path
      d="M3.50408 11.6788C3.50408 12.05 3.54247 12.3188 3.61927 12.4852C3.69606 12.6515 3.83685 12.7667 4.04163 12.8307C4.24641 12.8819 4.57918 12.9075 5.03994 12.9075H7.13255C7.86209 12.9075 8.44444 12.6835 8.8796 12.2356C9.31476 11.7876 9.60273 11.1669 9.74352 10.3733C9.74352 10.3349 9.77552 10.3221 9.83951 10.3349C9.9163 10.3349 9.9547 10.3541 9.9547 10.3925C9.83951 11.4548 9.78192 12.3316 9.78192 13.0227C9.78192 13.1251 9.76272 13.2019 9.72432 13.2531C9.68592 13.2915 9.60913 13.3107 9.49394 13.3107H0.624334C0.598736 13.3107 0.585938 13.2723 0.585938 13.1955C0.585938 13.1187 0.598736 13.0803 0.624334 13.0803C1.11069 13.0803 1.46266 13.0483 1.68024 12.9843C1.91062 12.9203 2.06421 12.7987 2.141 12.6195C2.21779 12.4276 2.25619 12.1396 2.25619 11.7556V2.86682C2.25619 2.48285 2.21779 2.20128 2.141 2.02209C2.06421 1.84291 1.91062 1.72132 1.68024 1.65732C1.46266 1.58053 1.11069 1.54213 0.624334 1.54213C0.598736 1.54213 0.585938 1.50374 0.585938 1.42694C0.585938 1.35015 0.598736 1.31176 0.624334 1.31176L1.56505 1.33095C2.1026 1.35655 2.53776 1.36935 2.87053 1.36935C3.2289 1.36935 3.67686 1.35655 4.21441 1.33095L5.13593 1.31176C5.17433 1.31176 5.19353 1.35015 5.19353 1.42694C5.19353 1.50374 5.17433 1.54213 5.13593 1.54213C4.66237 1.54213 4.3104 1.58053 4.08003 1.65732C3.86244 1.72132 3.70886 1.84931 3.61927 2.04129C3.54247 2.22047 3.50408 2.50205 3.50408 2.88601V11.6788Z"
      fill="black"
    />
    <path
      d="M19.9033 13.5411C18.713 13.5411 17.6507 13.2659 16.7164 12.7155C15.7949 12.1524 15.0781 11.3973 14.5662 10.4501C14.067 9.49022 13.8175 8.44711 13.8175 7.32082C13.8175 6.00253 14.1502 4.87624 14.8158 3.94192C15.4813 2.9948 16.3324 2.28447 17.3691 1.81091C18.4186 1.33735 19.4873 1.10057 20.5753 1.10057C21.7911 1.10057 22.8598 1.38855 23.7814 1.9645C24.7029 2.52765 25.4068 3.27638 25.8932 4.21069C26.3923 5.14501 26.6419 6.13692 26.6419 7.18643C26.6419 8.35112 26.3347 9.41983 25.7204 10.3925C25.106 11.3653 24.2805 12.1332 23.2438 12.6963C22.2199 13.2595 21.1064 13.5411 19.9033 13.5411ZM20.5753 13.1379C21.4456 13.1379 22.2263 12.9267 22.9174 12.5044C23.6214 12.082 24.1717 11.4612 24.5685 10.6421C24.9781 9.82299 25.1828 8.85028 25.1828 7.72398C25.1828 6.52089 24.9589 5.45218 24.5109 4.51787C24.0629 3.58355 23.4294 2.85402 22.6103 2.32926C21.8039 1.80451 20.8568 1.54213 19.7689 1.54213C18.361 1.54213 17.2603 1.99649 16.4668 2.90521C15.6733 3.81393 15.2765 5.06182 15.2765 6.64888C15.2765 7.85197 15.5005 8.95267 15.9485 9.95098C16.3964 10.9365 17.0236 11.7172 17.8299 12.2932C18.6362 12.8563 19.5513 13.1379 20.5753 13.1379Z"
      fill="black"
    />
    <path
      d="M42.6569 1.31176C42.6953 1.31176 42.7145 1.35015 42.7145 1.42694C42.7145 1.50374 42.6953 1.54213 42.6569 1.54213C42.2217 1.54213 41.8441 1.65732 41.5242 1.8877C41.2042 2.11808 40.9354 2.50845 40.7178 3.0588L36.6286 13.2915C36.6158 13.3427 36.5454 13.3683 36.4174 13.3683C36.315 13.3683 36.2446 13.3427 36.2063 13.2915L31.4259 2.90521C31.2083 2.40606 30.9779 2.05409 30.7347 1.84931C30.4916 1.64453 30.178 1.54213 29.794 1.54213C29.7556 1.54213 29.7364 1.50374 29.7364 1.42694C29.7364 1.35015 29.7556 1.31176 29.794 1.31176L30.5236 1.33095C30.8819 1.35655 31.1699 1.36935 31.3875 1.36935C31.8994 1.36935 32.4498 1.35655 33.0385 1.33095L33.8257 1.31176C33.8641 1.31176 33.8833 1.35015 33.8833 1.42694C33.8833 1.50374 33.8641 1.54213 33.8257 1.54213C33.4289 1.54213 33.1281 1.59333 32.9233 1.69572C32.7314 1.79811 32.6354 1.9709 32.6354 2.21407C32.6354 2.36766 32.693 2.57244 32.8082 2.82842L36.8206 11.6212L40.2763 2.96281C40.3787 2.69403 40.4299 2.48285 40.4299 2.32926C40.4299 2.06049 40.3083 1.86211 40.0651 1.73412C39.8219 1.60613 39.4444 1.54213 38.9324 1.54213C38.894 1.54213 38.8748 1.50374 38.8748 1.42694C38.8748 1.35015 38.894 1.31176 38.9324 1.31176L39.7579 1.33095C40.1931 1.35655 40.5899 1.36935 40.9482 1.36935C41.217 1.36935 41.5178 1.35655 41.8505 1.33095L42.6569 1.31176Z"
      fill="black"
    />
    <path
      d="M54.4065 10.4501C54.4065 10.4245 54.4321 10.4117 54.4833 10.4117C54.5217 10.4117 54.5537 10.4181 54.5793 10.4309C54.6177 10.4437 54.6369 10.4629 54.6369 10.4885C54.5217 11.2949 54.4641 12.1396 54.4641 13.0227C54.4641 13.1251 54.4385 13.2019 54.3873 13.2531C54.3489 13.2915 54.2721 13.3107 54.1569 13.3107H46.1129C46.0873 13.3107 46.0745 13.2723 46.0745 13.1955C46.0745 13.1187 46.0873 13.0803 46.1129 13.0803C46.5992 13.0803 46.9512 13.0483 47.1688 12.9843C47.3992 12.9203 47.5527 12.7987 47.6295 12.6195C47.7191 12.4276 47.7639 12.1396 47.7639 11.7556V2.86682C47.7639 2.48285 47.7191 2.20128 47.6295 2.02209C47.5527 1.84291 47.3992 1.72132 47.1688 1.65732C46.9512 1.58053 46.5992 1.54213 46.1129 1.54213C46.0873 1.54213 46.0745 1.50374 46.0745 1.42694C46.0745 1.35015 46.0873 1.31176 46.1129 1.31176H53.8306C53.9458 1.31176 54.0034 1.36935 54.0034 1.48454L54.0418 3.84593C54.0418 3.88432 54.0098 3.90992 53.9458 3.92272C53.8818 3.92272 53.8434 3.90352 53.8306 3.86513C53.7922 3.18679 53.5874 2.66203 53.2162 2.29087C52.8451 1.9069 52.3523 1.71492 51.738 1.71492H50.5669C50.1189 1.71492 49.7861 1.75332 49.5686 1.83011C49.3638 1.8941 49.2166 2.01569 49.127 2.19488C49.0502 2.36126 49.0118 2.61724 49.0118 2.96281V6.86006H51.354C51.9683 6.86006 52.4035 6.75767 52.6595 6.55288C52.9283 6.3481 53.0626 6.00253 53.0626 5.51618C53.0626 5.49058 53.101 5.47778 53.1778 5.47778C53.2546 5.47778 53.293 5.49058 53.293 5.51618L53.2738 7.07124C53.2738 7.44241 53.2802 7.72398 53.293 7.91596L53.3122 8.83748C53.3122 8.86308 53.2738 8.87588 53.197 8.87588C53.1202 8.87588 53.0818 8.86308 53.0818 8.83748C53.0818 8.27433 52.9411 7.87117 52.6595 7.62799C52.3907 7.38481 51.9363 7.26322 51.2964 7.26322H49.0118V11.6788C49.0118 12.0372 49.0502 12.2996 49.127 12.466C49.2038 12.6323 49.3446 12.7475 49.5494 12.8115C49.7541 12.8755 50.0741 12.9075 50.5093 12.9075H52.0451C52.6595 12.9075 53.1714 12.6899 53.581 12.2548C53.9906 11.8196 54.2657 11.2181 54.4065 10.4501Z"
      fill="black"
    />
    <path
      d="M71.8479 6.55288C72.859 6.62968 73.6717 6.96885 74.2861 7.57039C74.9132 8.15914 75.2268 8.89507 75.2268 9.7782C75.2268 10.4565 75.0604 11.0709 74.7276 11.6212C74.3948 12.1716 73.9341 12.6067 73.3453 12.9267C72.7694 13.2339 72.123 13.3875 71.4063 13.3875C70.9839 13.3875 70.5232 13.3683 70.024 13.3299C69.8448 13.3171 69.6337 13.3043 69.3905 13.2915C69.1473 13.2787 68.8785 13.2723 68.5842 13.2723L67.2787 13.2915C67.0483 13.3043 66.7219 13.3107 66.2996 13.3107C66.274 13.3107 66.2612 13.2723 66.2612 13.1955C66.2612 13.1187 66.274 13.0803 66.2996 13.0803C66.7859 13.0803 67.1443 13.0483 67.3747 12.9843C67.605 12.9075 67.765 12.7795 67.8546 12.6003C67.9442 12.4212 67.989 12.1396 67.989 11.7556V2.86682C67.989 2.48285 67.9442 2.20128 67.8546 2.02209C67.7778 1.84291 67.6242 1.72132 67.3939 1.65732C67.1635 1.58053 66.8115 1.54213 66.338 1.54213C66.2996 1.54213 66.2804 1.50374 66.2804 1.42694C66.2804 1.35015 66.2996 1.31176 66.338 1.31176L67.2787 1.33095C67.8162 1.35655 68.2514 1.36935 68.5842 1.36935C68.8145 1.36935 69.0257 1.36295 69.2177 1.35015C69.4225 1.33735 69.5953 1.32455 69.7361 1.31176C70.1328 1.27336 70.504 1.25416 70.8496 1.25416C71.9247 1.25416 72.731 1.49094 73.2685 1.9645C73.8061 2.42526 74.0749 3.0332 74.0749 3.78833C74.0749 4.40268 73.8765 4.95303 73.4797 5.43938C73.083 5.91294 72.539 6.28411 71.8479 6.55288ZM70.4272 1.54213C70.0944 1.54213 69.8448 1.56773 69.6785 1.61893C69.5249 1.67012 69.4097 1.79171 69.3329 1.98369C69.2561 2.17568 69.2177 2.48285 69.2177 2.90521V6.55288L70.0816 6.57208C71.0159 6.57208 71.7071 6.33531 72.155 5.86175C72.603 5.37539 72.827 4.73545 72.827 3.94192C72.827 3.22518 72.6286 2.64924 72.2318 2.21407C71.8479 1.76611 71.2463 1.54213 70.4272 1.54213ZM71.1183 13.0419C72.0526 13.0419 72.7438 12.8051 73.1917 12.3316C73.6525 11.8452 73.8829 11.1541 73.8829 10.2582C73.8829 9.28544 73.5949 8.49831 73.019 7.89676C72.4558 7.29522 71.6751 6.98805 70.6768 6.97525C70.2672 6.96245 69.7808 6.97525 69.2177 7.01364V11.7556C69.2177 12.0884 69.2625 12.3444 69.3521 12.5235C69.4545 12.7027 69.6401 12.8371 69.9088 12.9267C70.1904 13.0035 70.5936 13.0419 71.1183 13.0419Z"
      fill="black"
    />
    <path
      d="M91.9795 13.0803C92.0051 13.0803 92.0179 13.1187 92.0179 13.1955C92.0179 13.2723 92.0051 13.3107 91.9795 13.3107H89.5029C89.183 13.3107 88.5814 12.7667 87.6983 11.6788C86.828 10.5781 85.7657 9.04866 84.5114 7.09044C84.2042 7.18003 83.8586 7.22482 83.4747 7.22482C83.2315 7.22482 82.9435 7.21203 82.6107 7.18643V11.7556C82.6107 12.1524 82.6491 12.4404 82.7259 12.6195C82.8027 12.7987 82.9499 12.9203 83.1675 12.9843C83.3979 13.0483 83.7562 13.0803 84.2426 13.0803C84.281 13.0803 84.3002 13.1187 84.3002 13.1955C84.3002 13.2723 84.281 13.3107 84.2426 13.3107C83.8458 13.3107 83.5323 13.3043 83.3019 13.2915L81.9772 13.2723L80.6717 13.2915C80.4413 13.3043 80.115 13.3107 79.6926 13.3107C79.667 13.3107 79.6542 13.2723 79.6542 13.1955C79.6542 13.1187 79.667 13.0803 79.6926 13.0803C80.179 13.0803 80.5373 13.0483 80.7677 12.9843C80.9981 12.9075 81.1581 12.7795 81.2477 12.6003C81.3373 12.4212 81.3821 12.1396 81.3821 11.7556V2.86682C81.3821 2.48285 81.3373 2.20128 81.2477 2.02209C81.1709 1.84291 81.0173 1.72132 80.7869 1.65732C80.5693 1.58053 80.2174 1.54213 79.731 1.54213C79.6926 1.54213 79.6734 1.50374 79.6734 1.42694C79.6734 1.35015 79.6926 1.31176 79.731 1.31176L80.6717 1.33095C81.2093 1.35655 81.6444 1.36935 81.9772 1.36935C82.2076 1.36935 82.4252 1.36295 82.6299 1.35015C82.8347 1.33735 83.0139 1.32455 83.1675 1.31176C83.5771 1.27336 83.9482 1.25416 84.281 1.25416C85.3177 1.25416 86.1176 1.46534 86.6808 1.8877C87.2439 2.31007 87.5255 2.89881 87.5255 3.65395C87.5255 4.26829 87.3463 4.85064 86.988 5.40099C86.6296 5.93854 86.156 6.3673 85.5673 6.68727C86.6552 8.31273 87.5703 9.58621 88.3126 10.5077C89.055 11.4164 89.7141 12.0756 90.2901 12.4852C90.866 12.8819 91.4292 13.0803 91.9795 13.0803ZM82.6107 6.70647C82.9307 6.75767 83.3083 6.78326 83.7434 6.78326C84.6266 6.78326 85.2601 6.59768 85.6441 6.22651C86.028 5.84255 86.22 5.20901 86.22 4.32588C86.22 2.47005 85.4393 1.54213 83.8778 1.54213C83.5323 1.54213 83.2699 1.57413 83.0907 1.63813C82.9243 1.68932 82.8027 1.81091 82.7259 2.00289C82.6491 2.18208 82.6107 2.48285 82.6107 2.90521V6.70647Z"
      fill="black"
    />
    <path
      d="M103.592 10.4501C103.592 10.4245 103.617 10.4117 103.668 10.4117C103.707 10.4117 103.739 10.4181 103.764 10.4309C103.803 10.4437 103.822 10.4629 103.822 10.4885C103.707 11.2949 103.649 12.1396 103.649 13.0227C103.649 13.1251 103.624 13.2019 103.572 13.2531C103.534 13.2915 103.457 13.3107 103.342 13.3107H95.298C95.2724 13.3107 95.2596 13.2723 95.2596 13.1955C95.2596 13.1187 95.2724 13.0803 95.298 13.0803C95.7843 13.0803 96.1363 13.0483 96.3539 12.9843C96.5842 12.9203 96.7378 12.7987 96.8146 12.6195C96.9042 12.4276 96.949 12.1396 96.949 11.7556V2.86682C96.949 2.48285 96.9042 2.20128 96.8146 2.02209C96.7378 1.84291 96.5842 1.72132 96.3539 1.65732C96.1363 1.58053 95.7843 1.54213 95.298 1.54213C95.2724 1.54213 95.2596 1.50374 95.2596 1.42694C95.2596 1.35015 95.2724 1.31176 95.298 1.31176H103.016C103.131 1.31176 103.188 1.36935 103.188 1.48454L103.227 3.84593C103.227 3.88432 103.195 3.90992 103.131 3.92272C103.067 3.92272 103.028 3.90352 103.016 3.86513C102.977 3.18679 102.772 2.66203 102.401 2.29087C102.03 1.9069 101.537 1.71492 100.923 1.71492H99.752C99.304 1.71492 98.9712 1.75332 98.7537 1.83011C98.5489 1.8941 98.4017 2.01569 98.3121 2.19488C98.2353 2.36126 98.1969 2.61724 98.1969 2.96281V6.86006H100.539C101.153 6.86006 101.589 6.75767 101.845 6.55288C102.113 6.3481 102.248 6.00253 102.248 5.51618C102.248 5.49058 102.286 5.47778 102.363 5.47778C102.44 5.47778 102.478 5.49058 102.478 5.51618L102.459 7.07124C102.459 7.44241 102.465 7.72398 102.478 7.91596L102.497 8.83748C102.497 8.86308 102.459 8.87588 102.382 8.87588C102.305 8.87588 102.267 8.86308 102.267 8.83748C102.267 8.27433 102.126 7.87117 101.845 7.62799C101.576 7.38481 101.121 7.26322 100.481 7.26322H98.1969V11.6788C98.1969 12.0372 98.2353 12.2996 98.3121 12.466C98.3889 12.6323 98.5297 12.7475 98.7345 12.8115C98.9392 12.8755 99.2592 12.9075 99.6944 12.9075H101.23C101.845 12.9075 102.357 12.6899 102.766 12.2548C103.176 11.8196 103.451 11.2181 103.592 10.4501Z"
      fill="black"
    />
    <path
      d="M120.891 13.0803C120.943 13.0803 120.968 13.1187 120.968 13.1955C120.968 13.2723 120.943 13.3107 120.891 13.3107C120.648 13.3107 120.271 13.2979 119.759 13.2723C119.247 13.2467 118.876 13.2339 118.645 13.2339C118.364 13.2339 118.005 13.2467 117.57 13.2723C117.161 13.2979 116.847 13.3107 116.629 13.3107C116.578 13.3107 116.553 13.2723 116.553 13.1955C116.553 13.1187 116.578 13.0803 116.629 13.0803C117.103 13.0803 117.448 13.0355 117.666 12.9459C117.884 12.8563 117.992 12.7027 117.992 12.4852C117.992 12.306 117.909 12.0308 117.743 11.6596L115.535 6.95605H111.907L110.256 10.8725C110.076 11.3077 109.987 11.666 109.987 11.9476C109.987 12.7027 110.614 13.0803 111.868 13.0803C111.932 13.0803 111.964 13.1187 111.964 13.1955C111.964 13.2723 111.932 13.3107 111.868 13.3107C111.638 13.3107 111.305 13.2979 110.87 13.2723C110.384 13.2467 109.961 13.2339 109.603 13.2339C109.27 13.2339 108.886 13.2467 108.451 13.2723C108.067 13.2979 107.747 13.3107 107.491 13.3107C107.427 13.3107 107.395 13.2723 107.395 13.1955C107.395 13.1187 107.427 13.0803 107.491 13.0803C107.849 13.0803 108.15 13.0163 108.393 12.8883C108.649 12.7475 108.886 12.5108 109.104 12.178C109.334 11.8324 109.584 11.3397 109.852 10.6997L113.903 1.13897C113.929 1.10057 113.974 1.08138 114.038 1.08138C114.102 1.08138 114.14 1.10057 114.153 1.13897L118.684 10.6805C119.119 11.6276 119.49 12.2676 119.797 12.6003C120.104 12.9203 120.469 13.0803 120.891 13.0803ZM112.079 6.55288H115.343L113.615 2.90521L112.079 6.55288Z"
      fill="black"
    />
    <path
      d="M135.946 13.0803C135.984 13.0803 136.003 13.1187 136.003 13.1955C136.003 13.2723 135.984 13.3107 135.946 13.3107H133.795C133.693 13.3107 133.507 13.3107 133.239 13.3107C132.983 13.3235 132.618 13.0035 132.144 12.3508C131.671 11.6852 131.217 11.0773 130.781 10.5269L127.844 6.82166L127.21 7.43601V11.7556C127.21 12.1396 127.249 12.4276 127.326 12.6195C127.402 12.7987 127.55 12.9203 127.767 12.9843C127.998 13.0483 128.356 13.0803 128.842 13.0803C128.881 13.0803 128.9 13.1187 128.9 13.1955C128.9 13.2723 128.881 13.3107 128.842 13.3107C128.458 13.3107 128.151 13.3043 127.921 13.2915L126.577 13.2723L125.271 13.2915C125.041 13.3043 124.721 13.3107 124.312 13.3107C124.286 13.3107 124.273 13.2723 124.273 13.1955C124.273 13.1187 124.286 13.0803 124.312 13.0803C124.798 13.0803 125.15 13.0483 125.367 12.9843C125.598 12.9203 125.751 12.7987 125.828 12.6195C125.918 12.4276 125.963 12.1396 125.963 11.7556V2.86682C125.963 2.48285 125.924 2.20128 125.847 2.02209C125.771 1.84291 125.617 1.72132 125.387 1.65732C125.169 1.58053 124.817 1.54213 124.331 1.54213C124.305 1.54213 124.292 1.50374 124.292 1.42694C124.292 1.35015 124.305 1.31176 124.331 1.31176L125.291 1.33095C125.828 1.35655 126.257 1.36935 126.577 1.36935C126.948 1.36935 127.402 1.35655 127.94 1.33095L128.842 1.31176C128.881 1.31176 128.9 1.35015 128.9 1.42694C128.9 1.50374 128.881 1.54213 128.842 1.54213C128.369 1.54213 128.017 1.58053 127.786 1.65732C127.569 1.73412 127.415 1.86851 127.326 2.06049C127.249 2.23967 127.21 2.52125 127.21 2.90521V6.95605L131.319 2.86682C131.741 2.44445 131.952 2.13088 131.952 1.9261C131.952 1.67012 131.575 1.54213 130.82 1.54213C130.794 1.54213 130.781 1.50374 130.781 1.42694C130.781 1.35015 130.794 1.31176 130.82 1.31176L131.645 1.33095C132.157 1.35655 132.624 1.36935 133.047 1.36935C133.469 1.36935 133.911 1.35655 134.371 1.33095L135.082 1.31176C135.12 1.31176 135.139 1.35015 135.139 1.42694C135.139 1.50374 135.12 1.54213 135.082 1.54213C134.557 1.54213 134 1.65732 133.412 1.8877C132.823 2.11808 132.272 2.48285 131.76 2.982L128.727 5.95774L131.492 9.49022C132.426 10.7061 133.136 11.5636 133.623 12.0628C134.122 12.5619 134.506 12.8563 134.775 12.9459C135.043 13.0355 135.434 13.0803 135.946 13.0803Z"
      fill="black"
    />
    <path
      d="M147.568 3.84593C147.568 3.88432 147.536 3.90992 147.472 3.92272C147.408 3.92272 147.37 3.90352 147.357 3.86513C147.319 3.18679 147.114 2.66203 146.743 2.29087C146.371 1.9069 145.879 1.71492 145.264 1.71492H144.093C143.658 1.71492 143.332 1.74692 143.114 1.81091C142.897 1.8749 142.743 1.99009 142.653 2.15648C142.577 2.32286 142.538 2.56604 142.538 2.88601V7.09044H144.477C145.156 7.09044 145.636 6.98805 145.917 6.78326C146.211 6.56568 146.359 6.22011 146.359 5.74656C146.359 5.72096 146.397 5.70816 146.474 5.70816C146.551 5.70816 146.589 5.72096 146.589 5.74656L146.57 7.30162C146.57 7.67278 146.576 7.95436 146.589 8.14634L146.608 9.06786C146.608 9.09346 146.57 9.10626 146.493 9.10626C146.416 9.10626 146.378 9.09346 146.378 9.06786C146.378 8.50471 146.224 8.10155 145.917 7.85837C145.623 7.61519 145.124 7.4936 144.42 7.4936H142.538V11.6788C142.538 12.0884 142.589 12.3892 142.692 12.5811C142.807 12.7603 143.025 12.8883 143.345 12.9651C143.664 13.0419 144.17 13.0803 144.861 13.0803C144.9 13.0803 144.919 13.1187 144.919 13.1955C144.919 13.2723 144.9 13.3107 144.861 13.3107C144.336 13.3107 143.927 13.3043 143.632 13.2915L141.905 13.2723L140.599 13.2915C140.369 13.3043 140.042 13.3107 139.62 13.3107C139.594 13.3107 139.582 13.2723 139.582 13.1955C139.582 13.1187 139.594 13.0803 139.62 13.0803C140.106 13.0803 140.465 13.0483 140.695 12.9843C140.926 12.9203 141.079 12.7987 141.156 12.6195C141.246 12.4276 141.29 12.1396 141.29 11.7556V2.86682C141.29 2.48285 141.246 2.20128 141.156 2.02209C141.079 1.84291 140.926 1.72132 140.695 1.65732C140.478 1.58053 140.126 1.54213 139.639 1.54213C139.614 1.54213 139.601 1.50374 139.601 1.42694C139.601 1.35015 139.614 1.31176 139.639 1.31176H147.357C147.472 1.31176 147.53 1.36935 147.53 1.48454L147.568 3.84593Z"
      fill="black"
    />
    <path
      d="M164.239 13.0803C164.29 13.0803 164.316 13.1187 164.316 13.1955C164.316 13.2723 164.29 13.3107 164.239 13.3107C163.996 13.3107 163.618 13.2979 163.106 13.2723C162.594 13.2467 162.223 13.2339 161.993 13.2339C161.711 13.2339 161.353 13.2467 160.918 13.2723C160.508 13.2979 160.195 13.3107 159.977 13.3107C159.926 13.3107 159.9 13.2723 159.9 13.1955C159.9 13.1187 159.926 13.0803 159.977 13.0803C160.451 13.0803 160.796 13.0355 161.014 12.9459C161.231 12.8563 161.34 12.7027 161.34 12.4852C161.34 12.306 161.257 12.0308 161.09 11.6596L158.883 6.95605H155.254L153.603 10.8725C153.424 11.3077 153.334 11.666 153.334 11.9476C153.334 12.7027 153.962 13.0803 155.216 13.0803C155.28 13.0803 155.312 13.1187 155.312 13.1955C155.312 13.2723 155.28 13.3107 155.216 13.3107C154.985 13.3107 154.653 13.2979 154.217 13.2723C153.731 13.2467 153.309 13.2339 152.95 13.2339C152.618 13.2339 152.234 13.2467 151.799 13.2723C151.415 13.2979 151.095 13.3107 150.839 13.3107C150.775 13.3107 150.743 13.2723 150.743 13.1955C150.743 13.1187 150.775 13.0803 150.839 13.0803C151.197 13.0803 151.498 13.0163 151.741 12.8883C151.997 12.7475 152.234 12.5108 152.451 12.178C152.682 11.8324 152.931 11.3397 153.2 10.6997L157.251 1.13897C157.276 1.10057 157.321 1.08138 157.385 1.08138C157.449 1.08138 157.488 1.10057 157.5 1.13897L162.031 10.6805C162.466 11.6276 162.838 12.2676 163.145 12.6003C163.452 12.9203 163.817 13.0803 164.239 13.0803ZM155.427 6.55288H158.691L156.963 2.90521L155.427 6.55288Z"
      fill="black"
    />
    <path
      d="M169.771 3.55795C169.771 4.05711 169.893 4.49227 170.136 4.86344C170.379 5.2346 170.673 5.54817 171.019 5.80415C171.364 6.04733 171.851 6.3609 172.478 6.74487C173.143 7.14163 173.662 7.4744 174.033 7.74318C174.404 8.01195 174.718 8.35752 174.974 8.77989C175.242 9.18945 175.377 9.6822 175.377 10.2582C175.377 10.8725 175.223 11.4292 174.916 11.9284C174.609 12.4276 174.155 12.8243 173.553 13.1187C172.964 13.4003 172.254 13.5411 171.422 13.5411C170.436 13.5411 169.534 13.3171 168.715 12.8691C168.651 12.8307 168.606 12.7859 168.581 12.7347C168.568 12.6835 168.555 12.6067 168.542 12.5044L168.293 9.89339C168.28 9.84219 168.305 9.81019 168.369 9.79739C168.446 9.7846 168.491 9.80379 168.504 9.85499C168.709 10.7765 169.086 11.57 169.637 12.2356C170.2 12.9011 170.942 13.2339 171.864 13.2339C172.503 13.2339 173.041 13.0611 173.476 12.7155C173.924 12.3572 174.148 11.794 174.148 11.0261C174.148 10.4501 174.02 9.95098 173.764 9.52862C173.508 9.10626 173.195 8.76069 172.823 8.49191C172.465 8.21034 171.972 7.88397 171.345 7.5128C170.731 7.14163 170.244 6.82166 169.886 6.55288C169.541 6.28411 169.246 5.94494 169.003 5.53538C168.76 5.12581 168.638 4.64586 168.638 4.09551C168.638 3.45556 168.805 2.91161 169.137 2.46365C169.483 2.00289 169.925 1.66372 170.462 1.44614C171.012 1.21576 171.595 1.10057 172.209 1.10057C172.964 1.10057 173.713 1.25416 174.455 1.56133C174.647 1.62533 174.743 1.73412 174.743 1.8877L174.878 4.09551C174.878 4.1467 174.846 4.1723 174.782 4.1723C174.718 4.1723 174.679 4.1467 174.667 4.09551C174.564 3.42997 174.289 2.81562 173.841 2.25247C173.393 1.67652 172.747 1.38855 171.902 1.38855C171.185 1.38855 170.648 1.59973 170.289 2.02209C169.944 2.43165 169.771 2.94361 169.771 3.55795Z"
      fill="black"
    />
    <path
      d="M182.734 1.65732C181.928 1.65732 181.32 1.8621 180.91 2.27167C180.513 2.68123 180.225 3.37877 180.046 4.36428C180.046 4.38988 180.008 4.40268 179.931 4.40268C179.867 4.40268 179.835 4.38988 179.835 4.36428C179.886 3.90352 179.944 3.30198 180.008 2.55964C180.072 1.81731 180.104 1.26056 180.104 0.889393C180.104 0.825399 180.136 0.793402 180.2 0.793402C180.276 0.793402 180.315 0.825399 180.315 0.889393C180.315 1.17097 180.66 1.31176 181.352 1.31176C182.439 1.35015 183.726 1.36935 185.21 1.36935C185.966 1.36935 186.765 1.35655 187.61 1.33095L188.916 1.31176C189.376 1.31176 189.716 1.27976 189.933 1.21576C190.164 1.15177 190.311 1.02378 190.375 0.831798C190.388 0.780602 190.426 0.755005 190.49 0.755005C190.554 0.755005 190.586 0.780602 190.586 0.831798C190.548 1.20296 190.509 1.76611 190.471 2.52125C190.432 3.27638 190.413 3.89072 190.413 4.36428C190.413 4.38988 190.375 4.40268 190.298 4.40268C190.221 4.40268 190.183 4.38988 190.183 4.36428C190.144 3.36597 189.94 2.66843 189.568 2.27167C189.197 1.8621 188.583 1.65732 187.725 1.65732C187.149 1.65732 186.74 1.68292 186.497 1.73412C186.254 1.78531 186.087 1.8941 185.998 2.06049C185.908 2.22687 185.863 2.50845 185.863 2.90521V11.7556C185.863 12.1524 185.908 12.4404 185.998 12.6195C186.087 12.7987 186.26 12.9203 186.516 12.9843C186.772 13.0483 187.175 13.0803 187.725 13.0803C187.764 13.0803 187.783 13.1187 187.783 13.1955C187.783 13.2723 187.764 13.3107 187.725 13.3107C187.303 13.3107 186.964 13.3043 186.708 13.2915L185.21 13.2723L183.771 13.2915C183.515 13.3043 183.163 13.3107 182.715 13.3107C182.689 13.3107 182.676 13.2723 182.676 13.1955C182.676 13.1187 182.689 13.0803 182.715 13.0803C183.265 13.0803 183.668 13.0483 183.924 12.9843C184.18 12.9203 184.353 12.7987 184.442 12.6195C184.545 12.4276 184.596 12.1396 184.596 11.7556V2.86682C184.596 2.47005 184.551 2.19488 184.462 2.04129C184.372 1.8749 184.206 1.77251 183.963 1.73412C183.719 1.68292 183.31 1.65732 182.734 1.65732Z"
      fill="black"
    />
  </svg>